<mxfile host="app.diagrams.net" modified="2021-06-10T22:56:38.026Z" agent="5.0 (Windows NT 10.0; Win64; x64) AppleWebKit/537.36 (KHTML, like Gecko) Chrome/91.0.4472.101 Safari/537.36" etag="WSYqIhHJuSTYKhyGNHtK" version="14.6.13" type="github">
  <diagram id="BZJ9KVFbpimCTmKUlwr4" name="Page-1">
    <mxGraphModel dx="2272" dy="737" grid="1" gridSize="10" guides="1" tooltips="1" connect="1" arrows="1" fold="1" page="1" pageScale="1" pageWidth="850" pageHeight="1100" math="0" shadow="0">
      <root>
        <mxCell id="0" />
        <mxCell id="1" parent="0" />
        <mxCell id="RY2GNPGNeXl1zOkJjkwS-59" value="" style="edgeStyle=orthogonalEdgeStyle;rounded=0;orthogonalLoop=1;jettySize=auto;html=1;strokeWidth=1;fillColor=#dae8fc;strokeColor=#1A1A1A;" parent="1" source="RY2GNPGNeXl1zOkJjkwS-22" edge="1">
          <mxGeometry relative="1" as="geometry">
            <mxPoint x="-30" y="710" as="targetPoint" />
            <Array as="points">
              <mxPoint x="679" y="740" />
              <mxPoint x="-30" y="740" />
            </Array>
          </mxGeometry>
        </mxCell>
        <mxCell id="RY2GNPGNeXl1zOkJjkwS-70" value="&lt;span&gt;Notify Subscribers&lt;/span&gt;" style="edgeLabel;html=1;align=center;verticalAlign=middle;resizable=0;points=[];fontStyle=0" parent="RY2GNPGNeXl1zOkJjkwS-59" vertex="1" connectable="0">
          <mxGeometry x="0.2036" relative="1" as="geometry">
            <mxPoint as="offset" />
          </mxGeometry>
        </mxCell>
        <mxCell id="RY2GNPGNeXl1zOkJjkwS-15" value="&lt;font color=&quot;#cc0000&quot;&gt;Image Processing Backend&lt;/font&gt;" style="fillColor=none;verticalAlign=top;fontStyle=0;fontColor=#5A6C86;labelBackgroundColor=#ffffff;html=1;strokeColor=#CC0000;align=left;" parent="1" vertex="1">
          <mxGeometry x="460" y="120" width="410" height="530.5" as="geometry" />
        </mxCell>
        <mxCell id="RY2GNPGNeXl1zOkJjkwS-46" value="Web Server cluster" style="fillColor=none;verticalAlign=top;fontStyle=0;fontColor=#5A6C86;labelBackgroundColor=#ffffff;html=1;strokeColor=#1A1A1A;" parent="1" vertex="1">
          <mxGeometry x="70" y="348" width="244.5" height="247" as="geometry" />
        </mxCell>
        <mxCell id="RY2GNPGNeXl1zOkJjkwS-6" value="Extract Image Metadata" style="outlineConnect=0;fontColor=#232F3E;gradientColor=none;fillColor=#D05C17;strokeColor=none;dashed=0;verticalLabelPosition=bottom;verticalAlign=top;align=center;html=1;fontSize=12;fontStyle=0;aspect=fixed;pointerEvents=1;shape=mxgraph.aws4.lambda_function;" parent="1" vertex="1">
          <mxGeometry x="649" y="133.5" width="60" height="60" as="geometry" />
        </mxCell>
        <mxCell id="RY2GNPGNeXl1zOkJjkwS-7" value="Transform Metadata" style="outlineConnect=0;fontColor=#232F3E;gradientColor=none;fillColor=#D05C17;strokeColor=none;dashed=0;verticalLabelPosition=bottom;verticalAlign=top;align=center;html=1;fontSize=12;fontStyle=0;aspect=fixed;pointerEvents=1;shape=mxgraph.aws4.lambda_function;" parent="1" vertex="1">
          <mxGeometry x="649" y="243.5" width="60" height="60" as="geometry" />
        </mxCell>
        <mxCell id="7VSHakNJntf2VCaEipvx-4" value="" style="edgeStyle=orthogonalEdgeStyle;rounded=0;orthogonalLoop=1;jettySize=auto;html=1;startArrow=none;startFill=0;strokeWidth=1;" edge="1" parent="1" source="RY2GNPGNeXl1zOkJjkwS-8" target="RY2GNPGNeXl1zOkJjkwS-11">
          <mxGeometry relative="1" as="geometry" />
        </mxCell>
        <mxCell id="RY2GNPGNeXl1zOkJjkwS-8" value="Object Detection" style="outlineConnect=0;fontColor=#232F3E;gradientColor=none;fillColor=#D05C17;strokeColor=none;dashed=0;verticalLabelPosition=bottom;verticalAlign=top;align=center;html=1;fontSize=12;fontStyle=0;aspect=fixed;pointerEvents=1;shape=mxgraph.aws4.lambda_function;" parent="1" vertex="1">
          <mxGeometry x="649" y="343.5" width="60" height="60" as="geometry" />
        </mxCell>
        <mxCell id="RY2GNPGNeXl1zOkJjkwS-9" value="Generate Thumbnail" style="outlineConnect=0;fontColor=#232F3E;gradientColor=none;fillColor=#D05C17;strokeColor=none;dashed=0;verticalLabelPosition=bottom;verticalAlign=top;align=center;html=1;fontSize=12;fontStyle=0;aspect=fixed;pointerEvents=1;shape=mxgraph.aws4.lambda_function;" parent="1" vertex="1">
          <mxGeometry x="649" y="438.5" width="60" height="60" as="geometry" />
        </mxCell>
        <mxCell id="RY2GNPGNeXl1zOkJjkwS-10" value="Image &lt;br&gt;Processing&lt;br&gt;Workflow" style="points=[[0,0,0],[0.25,0,0],[0.5,0,0],[0.75,0,0],[1,0,0],[0,1,0],[0.25,1,0],[0.5,1,0],[0.75,1,0],[1,1,0],[0,0.25,0],[0,0.5,0],[0,0.75,0],[1,0.25,0],[1,0.5,0],[1,0.75,0]];outlineConnect=0;fontColor=#232F3E;gradientColor=#F34482;gradientDirection=north;fillColor=#BC1356;strokeColor=#ffffff;dashed=0;verticalLabelPosition=bottom;verticalAlign=top;align=center;html=1;fontSize=12;fontStyle=0;aspect=fixed;shape=mxgraph.aws4.resourceIcon;resIcon=mxgraph.aws4.step_functions;" parent="1" vertex="1">
          <mxGeometry x="479" y="329.5" width="78" height="78" as="geometry" />
        </mxCell>
        <mxCell id="RY2GNPGNeXl1zOkJjkwS-12" value="" style="outlineConnect=0;dashed=0;verticalLabelPosition=bottom;verticalAlign=top;align=center;html=1;shape=mxgraph.aws3.dynamo_db;fillColor=#2E73B8;gradientColor=none;" parent="1" vertex="1">
          <mxGeometry x="783" y="535" width="67" height="77.5" as="geometry" />
        </mxCell>
        <mxCell id="RY2GNPGNeXl1zOkJjkwS-17" value="" style="edgeStyle=orthogonalEdgeStyle;html=1;endArrow=block;elbow=vertical;startArrow=none;endFill=1;strokeColor=#545B64;rounded=0;" parent="1" target="RY2GNPGNeXl1zOkJjkwS-6" edge="1">
          <mxGeometry width="100" relative="1" as="geometry">
            <mxPoint x="557" y="368" as="sourcePoint" />
            <mxPoint x="657" y="368" as="targetPoint" />
            <Array as="points">
              <mxPoint x="599" y="368.5" />
              <mxPoint x="599" y="163.5" />
            </Array>
          </mxGeometry>
        </mxCell>
        <mxCell id="RY2GNPGNeXl1zOkJjkwS-18" value="" style="edgeStyle=orthogonalEdgeStyle;html=1;endArrow=block;elbow=vertical;startArrow=none;endFill=1;strokeColor=#545B64;rounded=0;exitX=1;exitY=0.5;exitDx=0;exitDy=0;exitPerimeter=0;" parent="1" source="RY2GNPGNeXl1zOkJjkwS-10" target="RY2GNPGNeXl1zOkJjkwS-7" edge="1">
          <mxGeometry width="100" relative="1" as="geometry">
            <mxPoint x="567" y="378" as="sourcePoint" />
            <mxPoint x="659" y="219.5" as="targetPoint" />
            <Array as="points">
              <mxPoint x="599" y="368.5" />
              <mxPoint x="599" y="273.5" />
            </Array>
          </mxGeometry>
        </mxCell>
        <mxCell id="RY2GNPGNeXl1zOkJjkwS-19" value="" style="edgeStyle=orthogonalEdgeStyle;html=1;endArrow=block;elbow=vertical;startArrow=none;endFill=1;strokeColor=#545B64;rounded=0;exitX=1;exitY=0.5;exitDx=0;exitDy=0;exitPerimeter=0;" parent="1" target="RY2GNPGNeXl1zOkJjkwS-8" edge="1">
          <mxGeometry width="100" relative="1" as="geometry">
            <mxPoint x="557" y="368.5" as="sourcePoint" />
            <mxPoint x="649" y="319.5" as="targetPoint" />
            <Array as="points">
              <mxPoint x="639" y="368.5" />
              <mxPoint x="639" y="368.5" />
            </Array>
          </mxGeometry>
        </mxCell>
        <mxCell id="RY2GNPGNeXl1zOkJjkwS-20" value="" style="edgeStyle=orthogonalEdgeStyle;html=1;endArrow=block;elbow=vertical;startArrow=none;endFill=1;strokeColor=#545B64;rounded=0;exitX=1;exitY=0.5;exitDx=0;exitDy=0;exitPerimeter=0;" parent="1" source="RY2GNPGNeXl1zOkJjkwS-10" target="RY2GNPGNeXl1zOkJjkwS-9" edge="1">
          <mxGeometry width="100" relative="1" as="geometry">
            <mxPoint x="567" y="378.5" as="sourcePoint" />
            <mxPoint x="659" y="429.5" as="targetPoint" />
            <Array as="points">
              <mxPoint x="557" y="369.5" />
              <mxPoint x="599" y="369.5" />
              <mxPoint x="599" y="468.5" />
            </Array>
          </mxGeometry>
        </mxCell>
        <mxCell id="7VSHakNJntf2VCaEipvx-6" value="" style="edgeStyle=orthogonalEdgeStyle;rounded=0;orthogonalLoop=1;jettySize=auto;html=1;startArrow=none;startFill=0;strokeWidth=1;" edge="1" parent="1" source="RY2GNPGNeXl1zOkJjkwS-22" target="RY2GNPGNeXl1zOkJjkwS-12">
          <mxGeometry relative="1" as="geometry" />
        </mxCell>
        <mxCell id="RY2GNPGNeXl1zOkJjkwS-22" value="Store Image Metadata&lt;br&gt;And Notify Subscribers" style="outlineConnect=0;fontColor=#232F3E;gradientColor=none;fillColor=#D05C17;strokeColor=none;dashed=0;verticalLabelPosition=bottom;verticalAlign=top;align=center;html=1;fontSize=12;fontStyle=0;aspect=fixed;pointerEvents=1;shape=mxgraph.aws4.lambda_function;" parent="1" vertex="1">
          <mxGeometry x="649" y="543.5" width="60" height="60" as="geometry" />
        </mxCell>
        <mxCell id="RY2GNPGNeXl1zOkJjkwS-23" value="" style="edgeStyle=orthogonalEdgeStyle;html=1;endArrow=block;elbow=vertical;startArrow=none;endFill=1;strokeColor=#545B64;rounded=0;" parent="1" edge="1">
          <mxGeometry width="100" relative="1" as="geometry">
            <mxPoint x="557" y="369.5" as="sourcePoint" />
            <mxPoint x="649" y="569.5" as="targetPoint" />
            <Array as="points">
              <mxPoint x="599" y="369.5" />
              <mxPoint x="599" y="569.5" />
              <mxPoint x="649" y="569.5" />
            </Array>
          </mxGeometry>
        </mxCell>
        <mxCell id="RY2GNPGNeXl1zOkJjkwS-24" value="" style="edgeStyle=orthogonalEdgeStyle;html=1;endArrow=block;elbow=vertical;startArrow=none;endFill=1;strokeColor=#545B64;rounded=0;exitX=1;exitY=0.5;exitDx=0;exitDy=0;exitPerimeter=0;" parent="1" edge="1" source="RY2GNPGNeXl1zOkJjkwS-11">
          <mxGeometry width="100" relative="1" as="geometry">
            <mxPoint x="709" y="368" as="sourcePoint" />
            <mxPoint x="819" y="368.5" as="targetPoint" />
            <Array as="points">
              <mxPoint x="791" y="368" />
              <mxPoint x="791" y="368" />
            </Array>
          </mxGeometry>
        </mxCell>
        <mxCell id="RY2GNPGNeXl1zOkJjkwS-62" value="" style="edgeStyle=orthogonalEdgeStyle;rounded=0;orthogonalLoop=1;jettySize=auto;html=1;strokeWidth=1;" parent="1" source="RY2GNPGNeXl1zOkJjkwS-26" target="RY2GNPGNeXl1zOkJjkwS-10" edge="1">
          <mxGeometry relative="1" as="geometry">
            <mxPoint x="570" y="181" as="sourcePoint" />
            <Array as="points">
              <mxPoint x="440" y="121" />
              <mxPoint x="440" y="369" />
            </Array>
          </mxGeometry>
        </mxCell>
        <mxCell id="RY2GNPGNeXl1zOkJjkwS-26" value="S3 Trigger" style="outlineConnect=0;fontColor=#232F3E;gradientColor=none;fillColor=#D05C17;strokeColor=none;dashed=0;verticalLabelPosition=bottom;verticalAlign=top;align=center;html=1;fontSize=12;fontStyle=0;aspect=fixed;pointerEvents=1;shape=mxgraph.aws4.lambda_function;labelBackgroundColor=#ffffff;" parent="1" vertex="1">
          <mxGeometry x="353" y="87" width="68" height="68" as="geometry" />
        </mxCell>
        <mxCell id="RY2GNPGNeXl1zOkJjkwS-61" value="" style="edgeStyle=orthogonalEdgeStyle;rounded=0;orthogonalLoop=1;jettySize=auto;html=1;strokeWidth=1;" parent="1" source="RY2GNPGNeXl1zOkJjkwS-29" target="RY2GNPGNeXl1zOkJjkwS-26" edge="1">
          <mxGeometry relative="1" as="geometry" />
        </mxCell>
        <mxCell id="RY2GNPGNeXl1zOkJjkwS-29" value="Private &lt;br&gt;Photo Upload&lt;br&gt;Bucket" style="points=[[0,0,0],[0.25,0,0],[0.5,0,0],[0.75,0,0],[1,0,0],[0,1,0],[0.25,1,0],[0.5,1,0],[0.75,1,0],[1,1,0],[0,0.25,0],[0,0.5,0],[0,0.75,0],[1,0.25,0],[1,0.5,0],[1,0.75,0]];outlineConnect=0;fontColor=#232F3E;gradientColor=#60A337;gradientDirection=north;fillColor=#277116;strokeColor=#ffffff;dashed=0;verticalLabelPosition=bottom;verticalAlign=top;align=center;html=1;fontSize=12;fontStyle=0;aspect=fixed;shape=mxgraph.aws4.resourceIcon;resIcon=mxgraph.aws4.s3;labelBackgroundColor=#ffffff;" parent="1" vertex="1">
          <mxGeometry x="234.5" y="87" width="68" height="68" as="geometry" />
        </mxCell>
        <mxCell id="RY2GNPGNeXl1zOkJjkwS-68" value="" style="edgeStyle=orthogonalEdgeStyle;rounded=0;orthogonalLoop=1;jettySize=auto;html=1;strokeWidth=1;startArrow=classic;startFill=1;" parent="1" source="RY2GNPGNeXl1zOkJjkwS-30" target="RY2GNPGNeXl1zOkJjkwS-56" edge="1">
          <mxGeometry relative="1" as="geometry" />
        </mxCell>
        <mxCell id="RY2GNPGNeXl1zOkJjkwS-30" value="API Gateway" style="points=[[0,0,0],[0.25,0,0],[0.5,0,0],[0.75,0,0],[1,0,0],[0,1,0],[0.25,1,0],[0.5,1,0],[0.75,1,0],[1,1,0],[0,0.25,0],[0,0.5,0],[0,0.75,0],[1,0.25,0],[1,0.5,0],[1,0.75,0]];outlineConnect=0;fontColor=#232F3E;gradientColor=#F34482;gradientDirection=north;fillColor=#BC1356;strokeColor=#ffffff;dashed=0;verticalLabelPosition=bottom;verticalAlign=top;align=center;html=1;fontSize=12;fontStyle=0;aspect=fixed;shape=mxgraph.aws4.resourceIcon;resIcon=mxgraph.aws4.api_gateway;labelBackgroundColor=#ffffff;" parent="1" vertex="1">
          <mxGeometry x="-70" y="614" width="68.5" height="68.5" as="geometry" />
        </mxCell>
        <mxCell id="RY2GNPGNeXl1zOkJjkwS-31" value="Amazon Cognito" style="outlineConnect=0;dashed=0;verticalLabelPosition=bottom;verticalAlign=top;align=center;html=1;shape=mxgraph.aws3.cognito;fillColor=#AD688B;gradientColor=none;labelBackgroundColor=#ffffff;strokeColor=#CC0000;" parent="1" vertex="1">
          <mxGeometry x="118.38" y="221" width="59.75" height="66" as="geometry" />
        </mxCell>
        <mxCell id="RY2GNPGNeXl1zOkJjkwS-63" value="" style="edgeStyle=orthogonalEdgeStyle;rounded=0;orthogonalLoop=1;jettySize=auto;html=1;strokeWidth=1;" parent="1" source="RY2GNPGNeXl1zOkJjkwS-39" target="RY2GNPGNeXl1zOkJjkwS-43" edge="1">
          <mxGeometry relative="1" as="geometry" />
        </mxCell>
        <mxCell id="RY2GNPGNeXl1zOkJjkwS-66" value="" style="edgeStyle=orthogonalEdgeStyle;rounded=0;orthogonalLoop=1;jettySize=auto;html=1;strokeWidth=1;entryX=0;entryY=0.5;entryDx=0;entryDy=0;entryPerimeter=0;fillColor=#dae8fc;strokeColor=#1A1A1A;" parent="1" source="RY2GNPGNeXl1zOkJjkwS-39" target="RY2GNPGNeXl1zOkJjkwS-30" edge="1">
          <mxGeometry relative="1" as="geometry">
            <mxPoint x="-210.56500000000005" y="434" as="targetPoint" />
            <Array as="points">
              <mxPoint x="-140" y="326" />
              <mxPoint x="-140" y="648" />
            </Array>
          </mxGeometry>
        </mxCell>
        <mxCell id="RY2GNPGNeXl1zOkJjkwS-67" value="Web Socket&lt;br&gt;Connection" style="edgeLabel;html=1;align=center;verticalAlign=middle;resizable=0;points=[];" parent="RY2GNPGNeXl1zOkJjkwS-66" vertex="1" connectable="0">
          <mxGeometry x="0.0316" y="-1" relative="1" as="geometry">
            <mxPoint as="offset" />
          </mxGeometry>
        </mxCell>
        <mxCell id="RY2GNPGNeXl1zOkJjkwS-39" value="Browser" style="pointerEvents=1;shadow=0;dashed=0;html=1;strokeColor=none;fillColor=#434445;aspect=fixed;labelPosition=center;verticalLabelPosition=bottom;verticalAlign=top;align=center;outlineConnect=0;shape=mxgraph.vvd.web_browser;labelBackgroundColor=#ffffff;" parent="1" vertex="1">
          <mxGeometry x="-250" y="298" width="78.87" height="56" as="geometry" />
        </mxCell>
        <mxCell id="RY2GNPGNeXl1zOkJjkwS-73" value="" style="edgeStyle=orthogonalEdgeStyle;rounded=0;orthogonalLoop=1;jettySize=auto;html=1;startArrow=none;startFill=0;strokeWidth=1;" parent="1" source="RY2GNPGNeXl1zOkJjkwS-43" target="RY2GNPGNeXl1zOkJjkwS-71" edge="1">
          <mxGeometry relative="1" as="geometry">
            <mxPoint x="-45.5" y="210" as="targetPoint" />
            <Array as="points">
              <mxPoint x="30" y="326" />
              <mxPoint x="30" y="121" />
            </Array>
          </mxGeometry>
        </mxCell>
        <mxCell id="RY2GNPGNeXl1zOkJjkwS-75" value="API&amp;nbsp;&lt;br&gt;Request" style="edgeLabel;html=1;align=center;verticalAlign=middle;resizable=0;points=[];" parent="RY2GNPGNeXl1zOkJjkwS-73" vertex="1" connectable="0">
          <mxGeometry x="0.2129" y="1" relative="1" as="geometry">
            <mxPoint y="58" as="offset" />
          </mxGeometry>
        </mxCell>
        <mxCell id="RY2GNPGNeXl1zOkJjkwS-43" value="Application&lt;br&gt;Load Balancer" style="outlineConnect=0;dashed=0;verticalLabelPosition=bottom;verticalAlign=top;align=center;html=1;shape=mxgraph.aws3.application_load_balancer;fillColor=#F58534;gradientColor=none;labelBackgroundColor=#ffffff;strokeColor=#CC0000;" parent="1" vertex="1">
          <mxGeometry x="-80" y="290" width="69" height="72" as="geometry" />
        </mxCell>
        <mxCell id="RY2GNPGNeXl1zOkJjkwS-44" value="AWS Fargate" style="points=[[0,0,0],[0.25,0,0],[0.5,0,0],[0.75,0,0],[1,0,0],[0,1,0],[0.25,1,0],[0.5,1,0],[0.75,1,0],[1,1,0],[0,0.25,0],[0,0.5,0],[0,0.75,0],[1,0.25,0],[1,0.5,0],[1,0.75,0]];outlineConnect=0;fontColor=#232F3E;gradientColor=#F78E04;gradientDirection=north;fillColor=#D05C17;strokeColor=#ffffff;dashed=0;verticalLabelPosition=bottom;verticalAlign=top;align=center;html=1;fontSize=12;fontStyle=0;aspect=fixed;shape=mxgraph.aws4.resourceIcon;resIcon=mxgraph.aws4.fargate;labelBackgroundColor=#ffffff;" parent="1" vertex="1">
          <mxGeometry x="88.5" y="379" width="71" height="71" as="geometry" />
        </mxCell>
        <mxCell id="RY2GNPGNeXl1zOkJjkwS-47" value="" style="outlineConnect=0;fontColor=#232F3E;gradientColor=none;fillColor=#D05C17;strokeColor=none;dashed=0;verticalLabelPosition=bottom;verticalAlign=top;align=center;html=1;fontSize=12;fontStyle=0;aspect=fixed;pointerEvents=1;shape=mxgraph.aws4.container_1;labelBackgroundColor=#ffffff;" parent="1" vertex="1">
          <mxGeometry x="200" y="407" width="78" height="50" as="geometry" />
        </mxCell>
        <mxCell id="RY2GNPGNeXl1zOkJjkwS-48" value="" style="outlineConnect=0;fontColor=#232F3E;gradientColor=none;fillColor=#D05C17;strokeColor=none;dashed=0;verticalLabelPosition=bottom;verticalAlign=top;align=center;html=1;fontSize=12;fontStyle=0;aspect=fixed;pointerEvents=1;shape=mxgraph.aws4.container_1;labelBackgroundColor=#ffffff;" parent="1" vertex="1">
          <mxGeometry x="200" y="466" width="78" height="50" as="geometry" />
        </mxCell>
        <mxCell id="RY2GNPGNeXl1zOkJjkwS-49" value="" style="outlineConnect=0;fontColor=#232F3E;gradientColor=none;fillColor=#D05C17;strokeColor=none;dashed=0;verticalLabelPosition=bottom;verticalAlign=top;align=center;html=1;fontSize=12;fontStyle=0;aspect=fixed;pointerEvents=1;shape=mxgraph.aws4.container_1;labelBackgroundColor=#ffffff;" parent="1" vertex="1">
          <mxGeometry x="200" y="527.5" width="78" height="50" as="geometry" />
        </mxCell>
        <mxCell id="RY2GNPGNeXl1zOkJjkwS-54" value="" style="edgeStyle=orthogonalEdgeStyle;html=1;endArrow=block;elbow=vertical;startArrow=block;startFill=1;endFill=1;strokeColor=#545B64;rounded=0;strokeWidth=2;entryX=0.5;entryY=0;entryDx=0;entryDy=0;entryPerimeter=0;" parent="1" target="RY2GNPGNeXl1zOkJjkwS-31" edge="1">
          <mxGeometry width="100" relative="1" as="geometry">
            <mxPoint x="148" y="180" as="sourcePoint" />
            <mxPoint x="148" y="184" as="targetPoint" />
            <Array as="points" />
          </mxGeometry>
        </mxCell>
        <mxCell id="RY2GNPGNeXl1zOkJjkwS-69" value="" style="edgeStyle=orthogonalEdgeStyle;rounded=0;orthogonalLoop=1;jettySize=auto;html=1;startArrow=none;startFill=0;strokeWidth=1;" parent="1" source="RY2GNPGNeXl1zOkJjkwS-56" target="RY2GNPGNeXl1zOkJjkwS-57" edge="1">
          <mxGeometry relative="1" as="geometry" />
        </mxCell>
        <mxCell id="RY2GNPGNeXl1zOkJjkwS-56" value="Communication API" style="outlineConnect=0;fontColor=#232F3E;gradientColor=none;fillColor=#D05C17;strokeColor=none;dashed=0;verticalLabelPosition=bottom;verticalAlign=top;align=center;html=1;fontSize=12;fontStyle=0;aspect=fixed;pointerEvents=1;shape=mxgraph.aws4.lambda_function;labelBackgroundColor=#ffffff;" parent="1" vertex="1">
          <mxGeometry x="180" y="614" width="68.5" height="68.5" as="geometry" />
        </mxCell>
        <mxCell id="RY2GNPGNeXl1zOkJjkwS-57" value="Connection&lt;br&gt;Store" style="outlineConnect=0;dashed=0;verticalLabelPosition=bottom;verticalAlign=top;align=center;html=1;shape=mxgraph.aws3.dynamo_db;fillColor=#2E73B8;gradientColor=none;" parent="1" vertex="1">
          <mxGeometry x="357" y="612.5" width="60" height="70" as="geometry" />
        </mxCell>
        <mxCell id="7VSHakNJntf2VCaEipvx-2" value="" style="edgeStyle=orthogonalEdgeStyle;rounded=0;orthogonalLoop=1;jettySize=auto;html=1;startArrow=none;startFill=0;strokeWidth=1;" edge="1" parent="1" source="RY2GNPGNeXl1zOkJjkwS-71">
          <mxGeometry relative="1" as="geometry">
            <mxPoint x="234.5" y="121" as="targetPoint" />
          </mxGeometry>
        </mxCell>
        <mxCell id="RY2GNPGNeXl1zOkJjkwS-71" value="Recognition API" style="outlineConnect=0;fontColor=#232F3E;gradientColor=none;fillColor=#D05C17;strokeColor=none;dashed=0;verticalLabelPosition=bottom;verticalAlign=top;align=center;html=1;fontSize=12;fontStyle=0;aspect=fixed;pointerEvents=1;shape=mxgraph.aws4.lambda_function;labelBackgroundColor=#ffffff;" parent="1" vertex="1">
          <mxGeometry x="108.5" y="87" width="68" height="68" as="geometry" />
        </mxCell>
        <mxCell id="RY2GNPGNeXl1zOkJjkwS-76" value="" style="edgeStyle=orthogonalEdgeStyle;html=1;endArrow=block;elbow=vertical;startArrow=block;startFill=1;endFill=1;strokeColor=#545B64;rounded=0;strokeWidth=2;entryX=0.5;entryY=0;entryDx=0;entryDy=0;" parent="1" edge="1">
          <mxGeometry width="100" relative="1" as="geometry">
            <mxPoint x="151" y="310" as="sourcePoint" />
            <mxPoint x="151.25" y="348" as="targetPoint" />
            <Array as="points">
              <mxPoint x="151" y="310" />
              <mxPoint x="151" y="310" />
            </Array>
          </mxGeometry>
        </mxCell>
        <mxCell id="RY2GNPGNeXl1zOkJjkwS-11" value="" style="points=[[0,0,0],[0.25,0,0],[0.5,0,0],[0.75,0,0],[1,0,0],[0,1,0],[0.25,1,0],[0.5,1,0],[0.75,1,0],[1,1,0],[0,0.25,0],[0,0.5,0],[0,0.75,0],[1,0.25,0],[1,0.5,0],[1,0.75,0]];outlineConnect=0;fontColor=#232F3E;gradientColor=#4AB29A;gradientDirection=north;fillColor=#116D5B;strokeColor=#ffffff;dashed=0;verticalLabelPosition=bottom;verticalAlign=top;align=center;html=1;fontSize=12;fontStyle=0;aspect=fixed;shape=mxgraph.aws4.resourceIcon;resIcon=mxgraph.aws4.rekognition_2;" parent="1" vertex="1">
          <mxGeometry x="780" y="335.5" width="76" height="76" as="geometry" />
        </mxCell>
        <mxCell id="7VSHakNJntf2VCaEipvx-7" value="" style="edgeStyle=orthogonalEdgeStyle;rounded=0;orthogonalLoop=1;jettySize=auto;html=1;startArrow=none;startFill=0;strokeWidth=1;exitX=1;exitY=0.5;exitDx=0;exitDy=0;exitPerimeter=0;entryX=-0.012;entryY=0.534;entryDx=0;entryDy=0;entryPerimeter=0;" edge="1" parent="1" source="RY2GNPGNeXl1zOkJjkwS-43" target="RY2GNPGNeXl1zOkJjkwS-46">
          <mxGeometry relative="1" as="geometry">
            <mxPoint x="159.5" y="109" as="targetPoint" />
            <Array as="points">
              <mxPoint x="30" y="326" />
              <mxPoint x="30" y="480" />
            </Array>
            <mxPoint x="-1" y="336" as="sourcePoint" />
          </mxGeometry>
        </mxCell>
      </root>
    </mxGraphModel>
  </diagram>
</mxfile>
